<?xml version="1.0" encoding="UTF-8" standalone="no"?>
<svg
   width="1182.7461"
   height="1215.3988"
   viewBox="0 0 1182.7461 1215.3988"
   fill="none"
   version="1.1"
   id="svg31"
   sodipodi:docname="logo 3.svg"
   inkscape:version="1.2 (dc2aedaf03, 2022-05-15)"
   xmlns:inkscape="http://www.inkscape.org/namespaces/inkscape"
   xmlns:sodipodi="http://sodipodi.sourceforge.net/DTD/sodipodi-0.dtd"
   xmlns="http://www.w3.org/2000/svg"
   xmlns:svg="http://www.w3.org/2000/svg">
  <sodipodi:namedview
     id="namedview33"
     pagecolor="#ffffff"
     bordercolor="#000000"
     borderopacity="0.25"
     inkscape:showpageshadow="2"
     inkscape:pageopacity="0.0"
     inkscape:pagecheckerboard="0"
     inkscape:deskcolor="#d1d1d1"
     showgrid="false"
     inkscape:zoom="0.46752784"
     inkscape:cx="1572.0989"
     inkscape:cy="829.8971"
     inkscape:window-width="1920"
     inkscape:window-height="991"
     inkscape:window-x="-9"
     inkscape:window-y="-9"
     inkscape:window-maximized="1"
     inkscape:current-layer="g24" />
  <g
     clip-path="url(#clip0_1790_2112)"
     id="g24"
     style="fill:#000000;fill-opacity:1"
     transform="translate(-331.44296,-0.01123154)">
    <g
       id="g957"
       inkscape:label="UNKWN"
       class="unkwn">
      <path
         d="m 1441.68,564.91 c -28.29,12.85 -56.73,19.15 -85.31,18.88 -20.64,-0.39 -41.94,-4.32 -59.53,-15.7 -18.51,-11.98 -30.06,-33.34 -36.32,-54.12 -4.96,-16.47 -4.89,-32.69 3.28,-48.06 8.01,-15.08 20.97,-27.2 34.41,-37.43 25.41,-16.07 50.93,-32.18 76.54,-48.33 10.98,-6.92 25.98,-15.81 30.45,-28.81 5.45,-15.87 -13.57,-29.93 -27.76,-31.03 -9.2,-0.72 -18.25,3.32 -25.41,9.13 -12.94,10.51 -21.97,25.87 -31.07,39.6 -19.14,28.84 -32.73,46.4 -40.78,52.67 -15.43,12.48 -30.51,9.83 -45.21,-7.9 -4.25,-5.18 -8.46,-14.41 -12.59,-27.7 -6.37,-20.81 -1.01,-41.86 16.09,-63.17 15.31,-19.53 37.01,-35.67 65.12,-48.44 42.28,-19.23 111,-34.53 141.21,12.37 26.15,40.59 22.34,93.29 -14.6,125.31 -12.07,10.47 -39.22,26.13 -81.42,46.99 -10.52,5.19 -21.53,10.67 -29.8,19.24 -3.9,4.06 -6.86,9.48 -6.35,15.1 1.5,16.65 25.45,27.07 39.48,20.7 10.41,-4.73 26.07,-21.28 46.96,-49.64 20.91,-28.35 37.14,-45.17 48.74,-50.44 15.91,-7.23 31.13,-0.87 45.65,19.07 12.57,17.34 23.49,34.29 19.41,56.74 -2.8,15.43 -11.34,29.39 -22.15,40.73 -13.79,14.47 -30.95,25.98 -49.06,34.21"
         fill="white"
         id="path12"
         style="fill:#000000;fill-opacity:1"
         inkscape:label="N"
         class="N" />
      <path
         d="m 1353.85,148.2 c 12.83,9.78 20.57,25.06 20.76,41.89 0.25,16.33 -4.9,34.28 -15.48,53.83 -17.95,33.24 -43.36,60.48 -76.19,81.75 -19.63,12.71 -43.03,24.13 -66.98,24.01 -10.25,-0.05 -19.07,-3.47 -28.74,-6.28 -22.13,-6.41 -50.37,-11.16 -62.98,-33.08 -5.98,-10.39 -6.66,-23.18 -4.29,-34.94 5.93,-29.46 26.07,-56.69 42.84,-80.94 13.46,-19.46 21.88,-33.2 25.22,-41.21 5.52,-12.48 4.66,-20.42 -2.58,-23.83 -15.12,-7.44 -27.6,-2.04 -37.47,16.18 -3.79,7.02 -10.19,24.3 -19.17,51.84 -8.64,25.73 -17.59,56.11 -41.99,71.24 -27.63,17.12 -58.66,9.17 -84.7,-6.48 -21.141,-12.65 -30.831,-40.34 -29.091,-83.07 1.65,-39.34 11.5,-75.72 29.571,-109.1599 20.22,-37.4 41.6,-52.22 64.13,-44.45 11.19,3.84 19.08,8.4 26.51,13.93 16.95,13.57 17.57,29.95 5.98,51.41 -7.44,13.7599 -15.62,26.9199 -25.61,38.9999 -11.88,14.38 -27.7,25.65 -36.46,42.62 -5.58,10.82 -8.13,24.37 -4.15,36.14 4.16,12.29 18.34,23.42 31.82,20.39 21.59,-4.85 25.5,-34.86 31.18,-52.45 6.13,-18.97 14.02,-37.3 22.87,-55.13 7.52,-15.18 14.23,-32.0299 28.98,-41.7799 18.78,-12.42 39.83,-5.31 58.02,4.51 16.04,8.65 29.3,20.1799 30.73,39.2899 2.73,36.29 -16.22,65.25 -35.08,94.37 -12.5,19.28 -31.51,40 -33.93,63.83 -0.26,2.59 -0.23,5.3 0.83,7.66 1.82,4.02 6.19,6.23 10.42,7.48 14.52,4.28 30.92,0.44 42.08,-9.8 16.25,-14.88 21.32,-41.16 27.11,-61.49 6.86,-24.03 13.15,-41.36 18.9,-51.98 13.98,-25.87 41.94,-43.49 71.76,-33.34 5.61,1.91 10.69,4.66 15.17,8.07"
         fill="white"
         id="path10"
         style="fill:#000000;fill-opacity:1"
         inkscape:label="W"
         class="W" />
      <path
         d="m 1003.98,242 c -4.361,9.54 -15.941,15.6 -34.751,18.21 -20.32,2.81 -36.87,-5.03 -49.67,-23.53 -9.17,-17.47 -18.33,-34.82 -27.47,-52.09 -10.82,-18.33 -24.18,-25.97 -40.11,-22.88 -21.66,4.09 -31.68,12.01 -30.05,23.77 0.6,4.28 2.85,8.75 6.76,13.44 2.34,2.73 9.44,9.93 21.3,21.57 6.31,6.32 9.77,11.62 10.37,15.9 2.02,14.54 -13.35,29.04 -25.46,33.99 -30.12,12.33 -60.2,-13.14 -75.91,-36.65 -12.38,-18.55 -20.33,-40.55 -23.85,-65.99 -3.93,-28.44 -1.63,-55.01 6.95,-79.7298 6.5,-19.47 17.59,-37.99 33.59,-51.19 7.01,-5.79 15.58,-10.11 24.68,-10.5 10.8,-0.47 27.07,5.28 28.79,17.61 2.3,16.51 -13.33,33.05 -17.55,48.16 -1.96,7.04 -2.17,14.8198 0.91,21.4298 2.33,4.98 6.37,9 10.93,12.07 6.75,4.55 17.26,9.16 25.03,4.88 7.45,-4.1 12.1,-12.79 15.69,-20.12 14.65,-30.0098 24.63,-63.5198 46.86,-89.2698 11.17,-12.95997 27.7,-22.87997 44.67,-20.789973 4.38,0.55 8.74,1.910003 12.31,4.530003 6.47,4.76 9.99,13.90997 11.06,21.62997 1.63,11.77 -4.42,23.17 -18.15,34.23 -13.3,9.47 -26.69,18.94 -40.2,28.44 -14.92,11.8598 -22.66,24.3798 -23.23,37.5298 -0.08,2.63 0.07,5.23 0.42,7.79 2.13,15.39 14.52,28.5 37.15,39.31 18.58,8.33 37.17,16.65 55.76,24.98 16.981,10.94 21.361,25.37 13.181,43.28"
         fill="white"
         id="path8"
         style="fill:#000000;fill-opacity:1"
         inkscape:label="K" />
      <path
         d="m 729.11,139.01 c 19.98,23.81 33.65,49.52 41.06,77.13 7.78,30.1 6.02,55.38 -5.27,75.84 -8.69,15.75 -26.93,30.62 -42.75,38.84 -30.36,15.77 -60.88,2.02 -86.01,-17.02 -22.3,-20.18 -44.65,-40.44 -67.07,-60.79 -9.72,-8.82 -28.42,-26.6 -43.25,-21.32 -4.76,1.7 -8.03,6.11 -10.41,10.59 -3.28,6.18 -5.45,13.1 -5.24,20.11 0.82,27.63 41.86,38.64 62.61,45.4 32.93,10.71 53.49,19.1 61.69,25.17 16.16,11.53 17.65,26.75 4.51,45.66 -3.85,5.49 -11.63,12.02 -23.32,19.56 -18.33,11.73 -40.05,12.2 -65.16,1.43 -22.92,-9.51 -44.3,-26.1 -64.12,-49.75 -20.12,-23.98 -33.07,-48.47 -38.86,-73.49 -4.33,-18.12 -5.24,-39.99 5.48,-56.2 13.26,-20.03 34.89,-34.55 57.69,-41.59 25.55,-7.9 52.33,-2.24 74.38,12.37 13.32,8.83 35.68,30.78 67.09,65.85 9.18,10.23 23.77,29.41 39.65,26.53 4.42,-0.81 8.25,-3.73 10.95,-7.32 4.93,-6.52 8.14,-15.79 7.44,-23.99 -1.07,-12.32 -12.33,-19.71 -22.14,-25.31 -14,-8 -29.14,-14.08 -44.18,-19.8 -32.91,-12.53 -53.47,-23.68 -61.65,-33.43 -20.1,-23.95 8,-56.97 26.95,-71.6 16.42,-12.6799 36.44,-14.3599 55.92,-8.4599 0.96,0.29 1.93,0.6 2.88,0.92 22.02,7.4399 42.4,22.3199 61.13,44.6499"
         fill="white"
         id="path6"
         style="fill:#000000;fill-opacity:1"
         inkscape:label="N" />
      <path
         d="m 611.029,461.52 c -0.17,19.15 -4.35,38.35 -10.82,56.21 -7.04,19.38 -15.36,39.95 -31.27,53.86 -33.25,29.07 -87.99,18.47 -126.52,8.56 -21.09,-5.42 -41.65,-12.92 -61.27,-22.37 -18.12,-8.74 -38.14,-18.11 -46.32,-37.84 -3.36,-8.08 -4.06,-16.92 -2.8,-25.52 1.34,-8.87 4.93,-18.71 10.77,-29.52 7.4,-13.46 17.68,-18.03 30.79,-13.7 9.63,3.19 27.1,16 52.41,38.45 24.48,21.74 49.54,42.43 83.74,43.96 7.51,0.34 15.19,-0.23 22.15,-3.07 14,-5.69 18.86,-20.07 23.25,-33.34 8.13,-24.62 3.72,-55.56 -19.32,-71.18 -5.92,-4.02 -12.87,-6.24 -19.85,-7.83 -33.16,-7.51 -66.54,2.04 -99.24,7.71 -19.31,3.4 -32.96,3.77 -40.95,1.13 -10.04,-3.32 -14.13,-11.59 -12.25,-24.85 1.47,-9.96 4.66,-19.6 9.55,-28.89 11.21,-20.85 30.7,-31.34 58.47,-31.49 19.86,-0.26 46.91,5.27 81.14,16.57 5.54,1.83 12.68,4.31 21.43,7.43 10.99,3.85 17.83,6.23 20.49,7.1 27.58,9.15 50.1,38.81 54.75,66.53 1.22,7.31 1.76,14.7 1.69,22.1"
         fill="white"
         id="path4"
         style="fill:#000000;fill-opacity:1"
         inkscape:label="U" />
    </g>
    <g
       id="g946"
       inkscape:label="BONES"
       class="bones">
      <path
         d="m 1369.15,726.26 c 10.8,11.49 9.89,28.15 2.95,41.38 -4.25,8.12 -10.64,16.43 -19.24,20.22 -9.89,4.34 -19.02,-0.78 -26.92,-6.78 -10.33,-7.83 -21.45,-14.23 -33.86,-6.4 -4.28,2.71 -7.82,6.44 -11.14,10.28 -21.33,24.68 -44.43,73.62 -0.53,88.92 19.04,6.65 46.39,5.14 63,-7.01 10.99,-8.03 17.3,-20.44 23.79,-32.03 7.14,-12.74 15.25,-25.26 24.18,-36.8 7.83,-10.09 20.57,-14.91 32.95,-16.21 14.63,-1.37 28.58,1.14 41.82,7.52 24.18,11.79 39.31,31.6 45.39,59.44 3.62,16.61 3.71,33.12 -0.85,49.6 -4.14,15.01 -11.27,29.05 -19.4,42.33 -11.81,19.28 -27.27,39.08 -48.31,48.81 -12.23,5.65 -25.56,8.79 -39,9.47 -18.54,0.95 -37.96,-0.78 -50.24,-16.47 -13.72,-17.54 -9.64,-40.52 0.3,-58.74 4.89,-8.95 11.4,-15.53 19.51,-19.76 8.12,-4.22 15.44,-4.54 22,-0.96 14.1,7.69 14.4,26.84 24.2,37.87 1.81,2.03 4.01,3.77 6.6,4.61 4.54,1.46 9.55,-0.13 13.61,-2.61 15.34,-9.42 27.57,-24.03 34.1,-40.78 7.05,-18.12 7.95,-39.38 0.21,-57.38 -6.19,-14.39 -18.34,-29.5 -35.41,-29.54 -9.41,-0.03 -17.72,6.3 -23.52,13.7 -6.14,7.83 -10.77,16.79 -16.57,24.9 -6.5,9.09 -13.18,18 -20.45,26.51 -9.05,10.6 -17.6,21.49 -29.37,29.3 -27.12,17.9 -66.46,21.88 -95.5,6.02 -37.24,-20.33 -44.23,-64.91 -35.97,-103.19 9.28,-42.93 35.79,-77.52 76.82,-94.44 5.55,-2.29 11.27,-4.23 17.07,-5.83 19.25,-5.31 40.44,-1.47 55.66,12.02 0.75,0.66 1.46,1.35 2.12,2.05"
         fill="white"
         id="path20"
         style="fill:#000000;fill-opacity:1"
         inkscape:label="S" />
      <path
         d="m 1351.25,1028.64 c 10.12,21.09 -0.43,42.44 -31.68,64.04 -16.86,11.68 -38.65,22.67 -65.34,33.02 -20.35,7.78 -36.31,12.79 -47.89,15.02 -19.93,3.81 -39.96,-0.3 -60.11,-12.35 -18.46,-11.11 -35.24,-27.58 -50.34,-49.42 -17.07,-24.66 -28.97,-51.35 -35.7,-80.03 -7.15,-29.7 -6.93,-54.78 0.68,-75.27 7.66,-20.67 23.83,-36.84 39.64,-51.57 15.86,-14.78 33.97,-27.71 54.22,-35.7 19.33,-7.62 57.2,-17.55 67.54,8.12 3.46,8.59 2.56,18.5 -0.88,27.1 -6.36,15.78 -19.57,29.07 -34.97,36.03 -15.32,6.92 -33,8.18 -47.81,16.17 -13.35,7.21 -19.51,22.21 -18.25,36.91 1.21,14.06 8.99,29.74 22.78,35.08 19.93,7.71 40.22,-8.31 52.93,-22.12 8.73,-9.47 16.17,-20.05 24.65,-29.74 4.85,-5.54 10.23,-10.93 16.98,-13.87 9.43,-4.14 21.06,-2.76 29.28,3.47 3.84,2.9 6.99,6.88 8.3,11.51 1.22,4.36 0.77,9.07 -0.64,13.37 -4.46,13.63 -17.64,22.56 -31,27.77 -17.87,6.96 -38.02,10.04 -54.34,20.62 -14.62,9.47 -17.56,27.55 -12.81,43.32 5.48,18.2 19.97,31.42 38.87,34.78 3.03,0.55 6.11,0.78 9.17,0.53 18.84,-1.56 32.6,-21.31 42.76,-35.28 11.14,-15.3 21.37,-31.69 36.22,-43.77 6.02,-4.9 13.98,-8.26 21.53,-6.43 12.42,3.03 21.11,18.02 26.21,28.64"
         fill="white"
         id="path18"
         style="fill:#000000;fill-opacity:1"
         inkscape:label="E" />
      <path
         d="m 1083.12,1070.97 c -0.16,31.08 -6.35,59.54 -18.58,85.38 -7.6,16.07 -18.45,31.61 -32.72,42.63 -16.73,12.92 -36.44,17.02 -57.26,16.37 -19.59,-0.62 -39.21,-5.2 -52.61,-20.35 -12.45,-14.06 -18.77,-32.81 -22.79,-50.83 -3.95,-29.8 -7.9,-59.72 -11.84,-89.75 -3.95,-30.02 -11.97,-45.06 -24.05,-45.13 -9.83,-0.05 -21.32,6.78 -27.16,14.44 -16.61,21.83 7.04,56.11 18.6,74.88 7.77,12.57 15.42,25.26 22.15,38.43 5.79,11.29 12.5,24.61 8.86,37.58 -4.1,14.57 -20.33,20.72 -34.07,21.79 -19.55,1.51 -39.74,-2.77 -54.51,-16.14 -12.62,-11.41 -20.76,-27.11 -26.19,-43.02 -3.6,-10.58 -6.09,-21.54 -7.56,-32.61 -1.33,-9.87 -1.87,-19.85 -1.82,-29.82 0.17,-31.3 6.14,-58.36 17.91,-81.17 8.44,-16.38 20.45,-31.51 38.01,-38.52 20.57,-8.22 44.53,-4.74 65.07,1.73 16.78,5.29 31.6,15.4 42.04,29.63 6.79,9.25 11.82,19.96 15.01,30.96 10.38,35.79 5.13,74.21 9.74,110.71 1.14,9.13 3.4,25.48 13.2,29.72 2.6,1.13 5.54,1.2 8.36,0.9 14.11,-1.47 27.97,-12.02 28.5,-27.01 0.38,-10.56 -4.46,-21.46 -8.61,-30.99 -4.94,-11.33 -10.68,-22.31 -16.65,-33.13 -17,-30.84 -25.47,-52.63 -25.41,-65.37 0.08,-13.1 8.18,-22.87 19.76,-28.2 16.12,-7.44 34.73,-11.34 52.43,-8.68 19.73,2.97 34.29,15.21 44.4,31.98 11.99,19.93 17.91,44.45 17.76,73.59"
         fill="white"
         id="path16"
         style="fill:#000000;fill-opacity:1"
         inkscape:label="N" />
      <path
         d="m 726.879,1027.35 c 6.09,-12.67 10.29,-25.98 11.79,-39.17 4.51,-39.98 -32.13,-80.9 -73.56,-74.25 -18.73,3.01 -33.2,15.75 -43.75,30.88 -5.31,7.61 -10.6,17.08 -15.87,28.4 -12.75,27.7 -15.64,51.85 -8.72,72.48 4.49,12.92 13.19,24.16 24.6,31.72 12.22,8.1 30.35,15.69 45.21,13.07 14.02,-2.49 24.59,-13.61 33.69,-23.72 10.64,-11.8 19.73,-25.08 26.62,-39.42 m 43.5,22.99 c -5.8,10.95 -11.54,20.5 -17.22,28.65 -24.55,35.2 -65.64,61.99 -109.9,49.73 -15.81,-4.38 -31.03,-10.29 -45.06,-18.86 -15.13,-9.25 -28.01,-21.52 -38.65,-36.83 -9.91,-14.34 -17.16,-29.67 -19.55,-47.04 -5.71,-41.47 13.07,-88.51 40.63,-119.29 9.39,-10.47 20.44,-19.5 32.9,-26.1 8.21,-4.36 16.83,-7.56 25.74,-10.15 8.25,-2.41 19.49,-2.85 33.71,-1.35 36.02,4.01 65.54,20.79 90.93,46.15 15.21,15.18 25.47,31.68 27.36,53.4 1.8,20.68 -3.37,41.42 -11.06,60.49 -2.9,7.22 -6.22,14.28 -9.82,21.19"
         fill="white"
         id="path14"
         style="fill:#000000;fill-opacity:1"
         inkscape:label="O" />
      <path
         d="m 411.419,885.94 c -24.53,-25.9 -39.59,-57.38 -13.31,-81.08 26.28,-23.7 58.68,-0.96 71.37,15.42 0,0 23.64,27.5 14.35,58.76 -9.29,31.26 -47.87,32.8 -72.41,6.91 M 530.649,767.4 c 20.89,-4.58 34.37,9.55 42.64,21.8 2.39,3.53 5.23,7.6 7.9,11.98 7.13,11.8 12.88,25.93 4.62,38.09 -15.17,22.32 -43.4,8.25 -57.66,-1.34 -15.96,-10.71 -45.75,-31.68 -28.16,-53.36 6.01,-7.4 20.71,-14.99 30.66,-17.17 z m -1.42,201.13 c 27.88,-25.86 1.12,-44.92 5.96,-62.49 0.01,-0.04 0.03,-0.09 0.04,-0.14 2.21,-8.09 9.04,-14.1 17.42,-14.6 25.38,-1.48 70.83,26.28 88,-16.6 8.31,-20.75 4.66,-42.81 -3.21,-62.65 -0.39,-0.95 -0.77,-1.9 -1.16,-2.86 -13.75,-33.77 -34.8,-59.88 -66.7,-78.17 -65.71,-37.67 -146.26,-22.13 -204.69,22.39 -21.23,18.34 -30.88,41.5 -28.57,67.13 0.3,4.72 1,9.67 2.17,14.84 2.33,10.36 6.48,21.65 12.8,33.95 6.92,12.77 14.54,25.15 22.79,37.17 22.18,32.3 52.24,60.82 91.26,70.4 21.82,5.36 47.51,6.83 63.89,-8.36"
         fill="white"
         id="path2"
         style="fill:#000000;fill-opacity:1"
         inkscape:label="B" />
    </g>
    <path
       d="m 1097.65,674.62 c -8.46,30.25 -31.12,53.45 -65.41,54.09 -5.22,-0.36 -10.47,-0.38 -15.62,-1.16 -7.48,-1.12 -10.32,-5.15 -9.28,-12.67 0.38,-2.76 1.07,-5.55 2.13,-8.13 2.54,-6.13 5.1,-12.28 8.14,-18.17 10.86,-21.01 21,-42.29 27.5,-65.16 2.6,-9.2 5.36,-18.43 9.04,-27.24 6.37,-15.23 18.06,-17.17 29.69,-5.42 9.73,9.82 14.6,22.04 17.04,35.36 3,16.42 1.21,32.59 -3.24,48.51 M 840.991,661.36 c 2.43,-17.12 14.8,-26.58 31.91,-24.4 4.05,0.51 8.08,1.35 11.98,2.52 14.17,4.25 28.35,8.49 42.38,13.18 9.54,3.19 19.19,6.39 28.16,10.82 12.62,6.26 17.97,16.85 16.44,29.36 -2.46,20.36 -17.28,33.69 -43.05,34.77 -4.7,-0.42 -14.01,-0.94 -23.23,-2.09 -21.7,-2.73 -40.08,-11.9 -53.82,-29.26 -8.05,-10.17 -12.66,-21.63 -10.78,-34.9 m 276.829,-99.52 c -1.82,-3.84 -3.76,-7.57 -5.78,-11.23 1.98,-1.57 3.2,-4.1 2.76,-6.91 -6.78,-44.06 -35.81,-177.13 -186.959,-150.64 -124.52,21.83 -184.15,91.11 -184.08,150.37 0,3.72 3.94,6.1 7.29,4.47 50.51,-24.65 109.12,-41.34 159.2,-35.8 2.24,0.25 2.15,3.5 -0.1,3.6 -54.64,2.64 -114.85,25.71 -162.26,53.78 -49.41,29.26 -84.91,63.89 -85.62,86.39 -0.95,29.79 95.8,34.23 127.66,31.81 -0.1,-0.23 -0.21,-0.52 -0.31,-0.75 3.94,6.09 8.07,11.93 12.28,17.34 3.04,3.9 3.95,9.04 2.41,13.75 -4.31,13.05 -0.1,27.36 11.34,34.95 12.15,8.07 25.98,11.08 40.05,13.31 1.64,0.26 3.3,0.36 4.94,0.61 3.17,0.48 4.83,1.87 4.89,3.89 -0.57,1.56 -1.95,3.46 -4.25,5.82 -8.35,8.56 -12.33,22.87 2.58,30.02 14.92,7.15 23.06,-3.98 24.65,-5.96 0,0 -5.76,26.84 34.99,27.03 13.72,0 25.05,-8.16 29.23,-15.31 0,0 -4.58,23.66 26.04,21.27 28.539,-2.22 36.849,-20.68 37.049,-40.08 0.08,-0.88 0.17,-1.76 0.22,-2.64 0.42,-6.53 3.84,-9.63 10.49,-10.2 9.15,-0.78 18.47,-1.08 27.34,-3.19 23.99,-5.71 39.6,-21.98 47.79,-45.32 3.27,-9.28 6.88,-18.42 11.46,-27.11 11.99,-22.75 16.08,-47.51 17.44,-72.72 1.33,-24.53 -2.17,-48.33 -12.75,-70.56"
       fill="white"
       id="path22"
       style="fill:#000000;fill-opacity:1"
       inkscape:label="bone" />
  </g>
  <defs
     id="defs29">
    <clipPath
       id="clip0_1790_2112">
      <rect
         width="1843.61"
         height="1215.41"
         fill="#ffffff"
         id="rect26"
         x="0"
         y="0" />
    </clipPath>
  </defs>
</svg>
